# xmcd
#
# Track frame offsets: 
#        150
#        12220
#        24644
#        39575
#        53171
#        64410
#        79494
#        97549
#        112107
#        124896
#        135412
#        148195
#        163191
#
# Disc length: 2342 seconds
#
# Revision: 0
# Processed by: cddbd v1.5.2PL0 Copyright (c) Steve Scherf et al.
# Submitted via: ExactAudioCopyFreeDBPlugin 1.0
#
DISCID=b409240d
DTITLE=Texas Oil - Mojo Oil
DYEAR=2018
DGENRE=Blues
TTITLE0=One Woman Man
TTITLE1=Mojo Man
TTITLE2=Skinny Minnie
TTITLE3=Come Back Birdie
TTITLE4=Desiree
TTITLE5=Night Ridin' Daddy
TTITLE6=Rocket
TTITLE7=If You Start Rockin' (Don't Forget To Roll)
TTITLE8=11th Street Boogie
TTITLE9=Tiger
TTITLE10=Hustler
TTITLE11=Oh Baby Doll
TTITLE12=Gather 'Round
EXTD=
EXTT0=
EXTT1=
EXTT2=
EXTT3=
EXTT4=
EXTT5=
EXTT6=
EXTT7=
EXTT8=
EXTT9=
EXTT10=
EXTT11=
EXTT12=
PLAYORDER=
